<svg width="106" height="28" viewBox="0 0 106 28" fill="none" xmlns="http://www.w3.org/2000/svg">
<g clip-path="url(#clip0_1181_3)">
<path d="M92 0H14C6.26801 0 0 6.26801 0 14C0 21.732 6.26801 28 14 28H92C99.732 28 106 21.732 106 14C106 6.26801 99.732 0 92 0Z" fill="#FE4372"/>
<path d="M29.3049 19V17.5L32.4849 13.9L34.0149 12.34L31.7799 12.355H29.4999V10.69H36.4599V12.16L33.2499 15.79L31.7049 17.35L33.9399 17.335H36.4599V19H29.3049ZM40.5758 19V10.69H42.6308V19H40.5758ZM37.7558 19V17.335H45.4058V19H37.7558ZM38.8208 12.355V10.69H41.6108V12.355H38.8208ZM40.4858 9.47498V7.47998H42.7058V9.47498H40.4858ZM50.9016 10.51C51.6316 10.51 52.2766 10.7 52.8366 11.08C53.3966 11.46 53.8316 11.98 54.1416 12.64C54.4616 13.29 54.6216 14.025 54.6216 14.845C54.6216 15.655 54.4616 16.39 54.1416 17.05C53.8316 17.7 53.3966 18.22 52.8366 18.61C52.2766 18.99 51.6316 19.18 50.9016 19.18C50.3916 19.18 49.9216 19.085 49.4916 18.895C49.0716 18.695 48.7166 18.43 48.4266 18.1V21.67H46.3566V10.69H48.3516L48.3966 11.605C48.6866 11.265 49.0466 11 49.4766 10.81C49.9066 10.61 50.3816 10.51 50.9016 10.51ZM50.3916 17.47C50.8216 17.47 51.1966 17.355 51.5166 17.125C51.8466 16.895 52.1016 16.585 52.2816 16.195C52.4716 15.795 52.5666 15.345 52.5666 14.845C52.5666 14.335 52.4716 13.885 52.2816 13.495C52.1016 13.095 51.8466 12.785 51.5166 12.565C51.1966 12.335 50.8216 12.22 50.3916 12.22C49.9416 12.22 49.5416 12.355 49.1916 12.625C48.8416 12.885 48.5866 13.24 48.4266 13.69V15.985C48.5866 16.435 48.8416 16.795 49.1916 17.065C49.5416 17.335 49.9416 17.47 50.3916 17.47ZM58.4675 10.51C58.9775 10.51 59.4475 10.61 59.8775 10.81C60.3175 11 60.6825 11.26 60.9725 11.59V7.92998H63.0125V19H61.0475L61.0025 18.055C60.7125 18.395 60.3475 18.67 59.9075 18.88C59.4775 19.08 58.9975 19.18 58.4675 19.18C57.7475 19.18 57.1075 18.99 56.5475 18.61C55.9875 18.22 55.5475 17.7 55.2275 17.05C54.9075 16.39 54.7475 15.655 54.7475 14.845C54.7475 14.025 54.9075 13.29 55.2275 12.64C55.5475 11.98 55.9875 11.46 56.5475 11.08C57.1075 10.7 57.7475 10.51 58.4675 10.51ZM58.9775 17.47C59.4375 17.47 59.8425 17.335 60.1925 17.065C60.5525 16.785 60.8125 16.415 60.9725 15.955V13.72C60.8125 13.25 60.5525 12.885 60.1925 12.625C59.8425 12.355 59.4375 12.22 58.9775 12.22C58.5575 12.22 58.1825 12.335 57.8525 12.565C57.5225 12.785 57.2675 13.095 57.0875 13.495C56.9075 13.885 56.8175 14.335 56.8175 14.845C56.8175 15.345 56.9075 15.795 57.0875 16.195C57.2675 16.585 57.5225 16.895 57.8525 17.125C58.1825 17.355 58.5575 17.47 58.9775 17.47ZM69.6333 14.65V13.57C69.6333 13.17 69.5233 12.85 69.3033 12.61C69.0833 12.36 68.7583 12.235 68.3283 12.235C67.8183 12.235 67.3483 12.415 66.9183 12.775C66.4983 13.125 66.1183 13.705 65.7783 14.515L65.5383 12.7C65.7883 12.22 66.0683 11.82 66.3783 11.5C66.6983 11.17 67.0483 10.925 67.4283 10.765C67.8183 10.595 68.2483 10.51 68.7183 10.51C69.5883 10.51 70.3033 10.77 70.8633 11.29C71.4233 11.81 71.7033 12.57 71.7033 13.57V14.65H69.6333ZM64.0683 19V10.69H66.0333L66.1383 12.31V19H64.0683ZM76.4042 19.18C75.5242 19.18 74.7642 19.005 74.1242 18.655C73.4942 18.305 73.0092 17.81 72.6692 17.17C72.3392 16.52 72.1742 15.745 72.1742 14.845C72.1742 13.945 72.3392 13.175 72.6692 12.535C73.0092 11.885 73.4942 11.385 74.1242 11.035C74.7642 10.685 75.5242 10.51 76.4042 10.51C77.7242 10.51 78.7542 10.895 79.4942 11.665C80.2442 12.435 80.6192 13.495 80.6192 14.845C80.6192 15.745 80.4492 16.52 80.1092 17.17C79.7792 17.81 79.2992 18.305 78.6692 18.655C78.0392 19.005 77.2842 19.18 76.4042 19.18ZM76.4042 17.5C77.0742 17.5 77.5992 17.265 77.9792 16.795C78.3692 16.315 78.5642 15.665 78.5642 14.845C78.5642 14.015 78.3692 13.365 77.9792 12.895C77.5992 12.425 77.0742 12.19 76.4042 12.19C75.7242 12.19 75.1892 12.425 74.7992 12.895C74.4192 13.365 74.2292 14.015 74.2292 14.845C74.2292 15.665 74.4192 16.315 74.7992 16.795C75.1892 17.265 75.7242 17.5 76.4042 17.5ZM85.7251 10.51C86.4551 10.51 87.1001 10.7 87.6601 11.08C88.2201 11.46 88.6551 11.98 88.9651 12.64C89.2851 13.29 89.4451 14.025 89.4451 14.845C89.4451 15.655 89.2851 16.39 88.9651 17.05C88.6551 17.7 88.2201 18.22 87.6601 18.61C87.1001 18.99 86.4551 19.18 85.7251 19.18C85.2151 19.18 84.7451 19.085 84.3151 18.895C83.8951 18.695 83.5401 18.43 83.2501 18.1V21.67H81.1801V10.69H83.1751L83.2201 11.605C83.5101 11.265 83.8701 11 84.3001 10.81C84.7301 10.61 85.2051 10.51 85.7251 10.51ZM85.2151 17.47C85.6451 17.47 86.0201 17.355 86.3401 17.125C86.6701 16.895 86.9251 16.585 87.1051 16.195C87.2951 15.795 87.3901 15.345 87.3901 14.845C87.3901 14.335 87.2951 13.885 87.1051 13.495C86.9251 13.095 86.6701 12.785 86.3401 12.565C86.0201 12.335 85.6451 12.22 85.2151 12.22C84.7651 12.22 84.3651 12.355 84.0151 12.625C83.6651 12.885 83.4101 13.24 83.2501 13.69V15.985C83.4101 16.435 83.6651 16.795 84.0151 17.065C84.3651 17.335 84.7651 17.47 85.2151 17.47Z" fill="#FFCDD9"/>
<path d="M16.2599 19.89L13.7699 18.06L16.4699 15.03L12.6599 14.01L13.6499 11.22L17.1599 12.54V8.69995H20.3099V12.54L23.8499 11.22L24.8399 14.01L20.9999 15.03L23.7599 18.06L21.2699 19.89L18.7499 16.71L16.2599 19.89Z" fill="#FFCDD9"/>
</g>
<defs>
<clipPath id="clip0_1181_3">
<rect width="106" height="28" fill="white"/>
</clipPath>
</defs>
</svg>
